<?xml version="1.0" encoding="UTF-8" standalone="no"?><!DOCTYPE svg PUBLIC "-//W3C//DTD SVG 1.1//EN" "http://www.w3.org/Graphics/SVG/1.1/DTD/svg11.dtd"><svg width="100%" height="100%" viewBox="0 0 90 74" version="1.1" xmlns="http://www.w3.org/2000/svg" xmlns:xlink="http://www.w3.org/1999/xlink" xml:space="preserve" xmlns:serif="http://www.serif.com/" style="fill-rule:evenodd;clip-rule:evenodd;stroke-linejoin:round;stroke-miterlimit:2;"><rect id="Artboard1" x="0" y="0" width="89.878" height="73.313" style="fill:none;"/><clipPath id="_clip1"><rect x="0" y="0" width="89.878" height="73.313"/></clipPath><g clip-path="url(#_clip1)"><g><path d="M37.503,55.726c0,4.378 3.561,7.94 7.937,7.94c4.378,0 7.94,-3.563 7.94,-7.94c0,-1.514 -0.434,-2.925 -1.173,-4.13l18.823,-21.851c0.056,-0.035 0.113,-0.064 0.168,-0.104c1.119,-0.82 1.361,-2.393 0.541,-3.512l-0.102,-0.139c-0.816,-1.124 -2.387,-1.373 -3.509,-0.558c-0.303,0.22 -0.536,0.497 -0.708,0.803l-19.052,22.119c-0.907,-0.362 -1.894,-0.566 -2.928,-0.566c-4.376,0 -7.937,3.562 -7.937,7.938Zm7.937,-2.913c1.607,0 2.915,1.306 2.915,2.912c0,1.607 -1.308,2.915 -2.915,2.915c-1.605,0 -2.912,-1.308 -2.912,-2.915c0.001,-1.606 1.307,-2.912 2.912,-2.912Z" style="fill:#e5a00d;fill-rule:nonzero;"/><path d="M11.819,73.621l67.245,0c0.779,0 1.516,-0.361 1.99,-0.979c6.102,-7.92 9.326,-17.394 9.326,-27.396c0,-24.779 -20.158,-44.938 -44.937,-44.938c-24.78,0 -44.941,20.159 -44.941,44.938c0,9.999 3.225,19.472 9.326,27.395c0.476,0.619 1.212,0.98 1.991,0.98Zm33.625,-68.287c22.007,0 39.912,17.905 39.912,39.913c0,8.474 -2.605,16.521 -7.55,23.349l-64.727,0c-4.944,-6.83 -7.55,-14.877 -7.55,-23.349c-0.001,-22.008 17.905,-39.913 39.915,-39.913Z" style="fill:#e5a00d;fill-rule:nonzero;"/><path d="M39.974,18.257c0.152,0 0.306,-0.014 0.461,-0.043l0.165,-0.03c1.366,-0.244 2.275,-1.55 2.031,-2.916c-0.244,-1.366 -1.556,-2.278 -2.916,-2.031l-0.196,0.036c-1.365,0.253 -2.266,1.564 -2.012,2.928c0.224,1.211 1.28,2.056 2.467,2.056Z" style="fill:#e5a00d;fill-rule:nonzero;"/><path d="M20.988,57.755c-0.63,-1.237 -2.141,-1.728 -3.379,-1.1c-1.237,0.63 -1.729,2.142 -1.1,3.379l0.097,0.187c0.449,0.859 1.323,1.35 2.229,1.35c0.392,0 0.79,-0.092 1.162,-0.285c1.23,-0.644 1.706,-2.161 1.063,-3.391l-0.072,-0.14Z" style="fill:#e5a00d;fill-rule:nonzero;"/><path d="M19.893,29.313c0.452,0.339 0.981,0.503 1.505,0.503c0.764,0 1.519,-0.347 2.012,-1.005l0.101,-0.133c0.839,-1.105 0.625,-2.681 -0.48,-3.521c-1.105,-0.839 -2.681,-0.624 -3.521,0.48l-0.12,0.16c-0.832,1.109 -0.607,2.683 0.503,3.516Z" style="fill:#e5a00d;fill-rule:nonzero;"/><path d="M15.017,39.049c0.452,0.339 0.981,0.502 1.505,0.502c0.764,0 1.519,-0.347 2.012,-1.005l0.101,-0.134c0.839,-1.104 0.625,-2.681 -0.48,-3.521c-1.105,-0.839 -2.681,-0.624 -3.521,0.48l-0.12,0.16c-0.833,1.11 -0.608,2.685 0.503,3.518Z" style="fill:#e5a00d;fill-rule:nonzero;"/><path d="M29.6,22.282c0.453,0 0.913,-0.123 1.326,-0.38l0.147,-0.091c1.181,-0.728 1.548,-2.276 0.819,-3.457c-0.728,-1.182 -2.276,-1.55 -3.457,-0.819l-0.166,0.102c-1.178,0.733 -1.538,2.283 -0.805,3.461c0.477,0.764 1.297,1.184 2.136,1.184Z" style="fill:#e5a00d;fill-rule:nonzero;"/><path d="M15.609,50.912c0.093,0 0.188,-0.005 0.283,-0.016c1.379,-0.154 2.372,-1.397 2.217,-2.776l-0.015,-0.144c-0.132,-1.381 -1.359,-2.397 -2.741,-2.261c-1.381,0.133 -2.394,1.36 -2.261,2.741l0.023,0.223c0.144,1.284 1.231,2.233 2.494,2.233Z" style="fill:#e5a00d;fill-rule:nonzero;"/><path d="M73.137,57.018c-1.227,-0.652 -2.747,-0.187 -3.398,1.039l-0.082,0.154c-0.656,1.223 -0.196,2.745 1.027,3.401c0.377,0.202 0.784,0.299 1.185,0.299c0.896,0 1.763,-0.481 2.217,-1.325l0.091,-0.171c0.649,-1.226 0.184,-2.747 -1.04,-3.397Z" style="fill:#e5a00d;fill-rule:nonzero;"/><path d="M75.531,46.104c-1.391,-0.155 -2.623,0.84 -2.777,2.218l-0.018,0.16c-0.167,1.378 0.814,2.63 2.192,2.796c0.103,0.013 0.204,0.019 0.305,0.019c1.253,0 2.337,-0.937 2.491,-2.211l0.023,-0.204c0.155,-1.38 -0.837,-2.623 -2.216,-2.778Z" style="fill:#e5a00d;fill-rule:nonzero;"/><path d="M50.628,18.248l0.181,0.035c0.162,0.032 0.324,0.047 0.483,0.047c1.178,0 2.229,-0.833 2.463,-2.032c0.267,-1.362 -0.622,-2.681 -1.985,-2.947l-0.18,-0.035c-1.359,-0.266 -2.682,0.623 -2.947,1.985c-0.266,1.362 0.623,2.681 1.985,2.947Z" style="fill:#e5a00d;fill-rule:nonzero;"/><path d="M60.104,21.992l0.158,0.102c0.42,0.267 0.887,0.395 1.35,0.395c0.83,0 1.641,-0.41 2.121,-1.161c0.746,-1.17 0.402,-2.723 -0.768,-3.47l-0.148,-0.095c-1.168,-0.75 -2.723,-0.41 -3.472,0.758c-0.749,1.168 -0.409,2.722 0.759,3.471Z" style="fill:#e5a00d;fill-rule:nonzero;"/><path d="M72,38.137l0.047,0.183c0.299,1.126 1.315,1.87 2.428,1.87c0.213,0 0.43,-0.027 0.645,-0.084c1.342,-0.354 2.141,-1.729 1.787,-3.071l-0.047,-0.173c-0.352,-1.342 -1.724,-2.144 -3.067,-1.792c-1.343,0.351 -2.146,1.724 -1.793,3.067Z" style="fill:#e5a00d;fill-rule:nonzero;"/></g></g></svg>