<?xml version="1.0" encoding="UTF-8" standalone="no"?><!DOCTYPE svg PUBLIC "-//W3C//DTD SVG 1.1//EN" "http://www.w3.org/Graphics/SVG/1.1/DTD/svg11.dtd"><svg width="100%" height="100%" viewBox="0 0 70 58" version="1.1" xmlns="http://www.w3.org/2000/svg" xmlns:xlink="http://www.w3.org/1999/xlink" xml:space="preserve" xmlns:serif="http://www.serif.com/" style="fill-rule:evenodd;clip-rule:evenodd;stroke-linejoin:round;stroke-miterlimit:2;"><rect id="Artboard1" x="0" y="0" width="69.363" height="57.243" style="fill:none;"/><clipPath id="_clip1"><rect x="0" y="0" width="69.363" height="57.243"/></clipPath><g clip-path="url(#_clip1)"><g><path d="M35.048,41.368c4.418,0 8.421,1.798 11.323,4.699l4.691,-4.691c-3.373,-3.372 -7.801,-5.686 -12.737,-6.404l-6.799,6.8c1.135,-0.256 2.311,-0.404 3.522,-0.404Z" style="fill:#eaeaea;fill-rule:nonzero;"/><path d="M28.477,50.818l6.571,6.572l6.571,-6.572c-1.681,-1.683 -4.006,-2.723 -6.571,-2.722c-2.566,0.001 -4.89,1.04 -6.571,2.722Z" style="fill:#eaeaea;fill-rule:nonzero;"/><path d="M35.048,21.544c-9.882,-0.001 -18.845,4.02 -25.336,10.51l4.693,4.691c3.758,-3.757 8.535,-6.491 13.872,-7.764l7.421,-7.422c-0.217,-0.002 -0.432,-0.015 -0.65,-0.015Z" style="fill:#eaeaea;fill-rule:nonzero;"/><path d="M55.692,36.746l4.69,-4.691c-3.255,-3.255 -7.133,-5.888 -11.435,-7.705l-5.167,5.166c4.549,1.428 8.621,3.938 11.912,7.23Z" style="fill:#eaeaea;fill-rule:nonzero;"/><path d="M35.048,8.319c-13.528,0 -25.797,5.503 -34.682,14.39l4.692,4.692c7.684,-7.684 18.292,-12.442 29.991,-12.443c2.286,0 4.527,0.187 6.717,0.537l5.605,-5.606c-3.939,-1.024 -8.068,-1.57 -12.323,-1.57Z" style="fill:#eaeaea;fill-rule:nonzero;"/><path d="M53.905,19.392c4.137,2.062 7.897,4.771 11.134,8.006l4.69,-4.691c-3.223,-3.224 -6.897,-5.995 -10.911,-8.228l-4.913,4.913Z" style="fill:#eaeaea;fill-rule:nonzero;"/><path d="M16.365,54.715l-4.459,-4.863l47.064,-49.353l4.556,4.426l-47.161,49.79Z" style="fill:#eaeaea;"/></g></g></svg>