<?xml version="1.0" encoding="UTF-8" standalone="no"?><!DOCTYPE svg PUBLIC "-//W3C//DTD SVG 1.1//EN" "http://www.w3.org/Graphics/SVG/1.1/DTD/svg11.dtd"><svg width="100%" height="100%" viewBox="0 0 100 100" version="1.1" xmlns="http://www.w3.org/2000/svg" xmlns:xlink="http://www.w3.org/1999/xlink" xml:space="preserve" xmlns:serif="http://www.serif.com/" style="fill-rule:evenodd;clip-rule:evenodd;stroke-linejoin:round;stroke-miterlimit:2;"><rect id="Artboard1" x="0" y="0" width="100" height="100" style="fill:none;"/><path d="M90.009,81.443l-14.6,-14.5c11.4,-14.6 10.2,-35.4 -2.9,-48.5c-6.9,-6.9 -16.1,-10.7 -25.9,-10.7c-9.8,0 -19,3.8 -25.9,10.7c-6.9,6.9 -10.7,16.1 -10.7,25.9c0,9.8 3.8,19 10.7,25.9c6.9,6.9 16.1,10.7 25.9,10.7c8.1,0 16.1,-2.7 22.5,-7.8l14.5,14.7c0.9,0.9 2,1.3 3.2,1.3c1.2,0 2.3,-0.5 3.2,-1.3c1.8,-1.7 1.8,-4.6 0,-6.4Zm-15.8,-37.1c0,7.4 -2.9,14.3 -8.1,19.5c-5.2,5.2 -12.2,8.1 -19.5,8.1c-7.3,0 -14.3,-2.9 -19.5,-8.1c-5.2,-5.2 -8.1,-12.2 -8.1,-19.5c0,-7.4 2.9,-14.3 8.1,-19.5c5.2,-5.2 12.2,-8.1 19.5,-8.1c7.4,0 14.3,2.9 19.5,8.1c5.2,5.2 8.1,12.1 8.1,19.5Z" style="fill:#42b983;fill-rule:nonzero;"/></svg>