<?xml version="1.0" encoding="UTF-8" standalone="no"?><!DOCTYPE svg PUBLIC "-//W3C//DTD SVG 1.1//EN" "http://www.w3.org/Graphics/SVG/1.1/DTD/svg11.dtd"><svg width="100%" height="100%" viewBox="0 0 8 12" version="1.1" xmlns="http://www.w3.org/2000/svg" xmlns:xlink="http://www.w3.org/1999/xlink" xml:space="preserve" xmlns:serif="http://www.serif.com/" style="fill-rule:evenodd;clip-rule:evenodd;stroke-linejoin:round;stroke-miterlimit:2;"><path d="M3.948,0.126c-0.18,-0.008 -0.355,0.056 -0.487,0.178c-1.789,1.648 -2.945,3.872 -3.266,6.283c-0.112,0.738 -0.089,1.49 0.066,2.22c0.366,1.72 1.898,2.96 3.656,2.96c1.758,0 3.29,-1.24 3.656,-2.96l0.001,0c0.155,-0.73 0.178,-1.482 0.066,-2.22c-0.321,-2.411 -1.477,-4.635 -3.265,-6.283c-0.117,-0.108 -0.269,-0.171 -0.427,-0.178l0,0Zm-0.194,0.226c-0.88,2.041 -1.494,4.186 -1.825,6.384c-0.315,1.6 0.067,3.261 1.049,4.563c0.052,0.068 0.111,0.131 0.177,0.187c-1.353,-0.299 -2.411,-1.365 -2.7,-2.72c-0.151,-0.707 -0.173,-1.436 -0.065,-2.151c0.315,-2.366 1.45,-4.548 3.205,-6.166l0,0c0.046,-0.043 0.1,-0.076 0.159,-0.097l0,0Zm0.327,0c0.059,0.021 0.113,0.054 0.159,0.097c1.755,1.618 2.889,3.8 3.204,6.166c0.109,0.715 0.087,1.444 -0.064,2.151c-0.288,1.355 -1.347,2.421 -2.699,2.72c0.065,-0.056 0.124,-0.119 0.176,-0.187c0.983,-1.302 1.365,-2.963 1.05,-4.563c-0.332,-2.198 -0.946,-4.344 -1.826,-6.384l0,0Zm-0.262,0.353l0,10.859c-0.271,-0.028 -0.519,-0.167 -0.683,-0.385c-0.95,-1.258 -1.318,-2.863 -1.012,-4.41c0.314,-2.083 0.883,-4.119 1.695,-6.064Zm0.198,0c0.812,1.945 1.381,3.981 1.695,6.064c0.306,1.547 -0.063,3.152 -1.013,4.41c-0.164,0.218 -0.411,0.357 -0.682,0.385l0,-10.859Z" style="fill-rule:nonzero;stroke:#cc7b19;stroke-width:0.25px;"/></svg>