<?xml version="1.0" encoding="utf-8"?>
<!-- Generator: Adobe Illustrator 16.0.0, SVG Export Plug-In . SVG Version: 6.00 Build 0)  -->
<!DOCTYPE svg PUBLIC "-//W3C//DTD SVG 1.1//EN" "http://www.w3.org/Graphics/SVG/1.1/DTD/svg11.dtd">
<svg version="1.1" id="Layer_1" xmlns="http://www.w3.org/2000/svg" xmlns:xlink="http://www.w3.org/1999/xlink" x="0px" y="0px"
	 width="210px" height="399px" viewBox="154.5 4.5 210 399" enable-background="new 154.5 4.5 210 399" xml:space="preserve">
<title>Beans-coffee-coffeebeans-seed-village</title>
<path fill="#2BCA2B" d="M230.4,153.6h19.2v66.278l-20.039,9.107c-43.197,19.633-62.299,70.565-42.667,113.763
	c8.596,18.913,23.753,34.07,42.667,42.666l23.789,10.81c1.683,0.766,3.616,0.766,5.299,0l23.789-10.81l0,0
	c43.196-19.633,62.299-70.565,42.666-113.762c-8.596-18.913-23.753-34.071-42.666-42.667l-20.038-9.107V217.6h32
	c35.33-0.039,63.961-28.67,64-64c0-3.535-2.866-6.4-6.4-6.4h-38.4c-20.177,0.02-39.158,9.569-51.199,25.76V76.8H281.6
	c31.796-0.039,57.562-25.804,57.601-57.6c0-3.535-2.865-6.4-6.4-6.4h-25.6c-29.315,0.043-53.934,22.07-57.223,51.2H249.6v42.88
	C236.46,88.054,214.958,76.825,192,76.8h-25.6c-3.535,0-6.4,2.866-6.4,6.4C160.046,122.062,191.538,153.554,230.4,153.6z M313.6,160
	h31.604c-3.261,25.583-25.013,44.766-50.803,44.8h-31.604C266.057,179.217,287.81,160.035,313.6,160z M192,307.2
	c0.015-11.579,2.788-22.987,8.09-33.28c11.313,12.859,17.541,29.407,17.51,46.535v42.277C201.381,348.838,192.032,328.557,192,307.2
	z M230.4,371.533v-51.078c0.037-21.536-8.292-42.244-23.232-57.754c3.91-5.104,8.474-9.669,13.574-13.581
	c18.554,19.104,28.909,44.702,28.858,71.335v60.006l-14.72-6.701C233.337,373.068,231.859,372.32,230.4,371.533z M294.4,362.732
	v-42.277c-0.029-17.126,6.197-33.672,17.51-46.529C327.407,304.002,320.154,340.791,294.4,362.732L294.4,362.732z M304.832,262.701
	c-14.939,15.51-23.27,36.218-23.232,57.754v51.078c-1.459,0.787-2.938,1.535-4.479,2.227l0,0l-14.72,6.701v-60.006
	c-0.053-26.631,10.303-52.227,28.857-71.329C296.357,253.037,300.922,257.601,304.832,262.701z M280.275,242.221
	c-10.811,11.676-19.078,25.473-24.275,40.512c-5.195-15.047-13.462-28.849-24.275-40.531c1.037-0.531,2.061-1.082,3.13-1.562
	l21.146-9.6l21.12,9.6c1.088,0.486,2.118,1.03,3.155,1.562V242.221z M307.2,25.6h18.745c-3.21,22.028-22.084,38.372-44.346,38.4
	h-18.745C266.064,41.972,284.939,25.628,307.2,25.6z M192,89.6c29.322,0.035,53.952,22.063,57.248,51.2H230.4
	c-29.322-0.035-53.952-22.063-57.248-51.2H192z"/>
</svg>
