<?xml version="1.0" encoding="UTF-8" standalone="no"?><!DOCTYPE svg PUBLIC "-//W3C//DTD SVG 1.1//EN" "http://www.w3.org/Graphics/SVG/1.1/DTD/svg11.dtd"><svg width="100%" height="100%" viewBox="0 0 96 78" version="1.1" xmlns="http://www.w3.org/2000/svg" xmlns:xlink="http://www.w3.org/1999/xlink" xml:space="preserve" xmlns:serif="http://www.serif.com/" style="fill-rule:evenodd;clip-rule:evenodd;stroke-linejoin:round;stroke-miterlimit:2;"><g><path d="M37.3,13.8l52.5,0c3.1,0 5.7,-2.6 5.7,-5.7c0,-3.1 -2.5,-5.7 -5.7,-5.7l-52.5,0c-3.1,0 -5.7,2.6 -5.7,5.7c0,3.1 2.6,5.7 5.7,5.7Z" style="fill:#42b983;fill-rule:nonzero;"/><path d="M89.8,33.3l-52.5,0c-3.1,0 -5.7,2.6 -5.7,5.7c0,3.1 2.5,5.7 5.7,5.7l52.5,0c3.1,0 5.7,-2.6 5.7,-5.7c0,-3.1 -2.5,-5.7 -5.7,-5.7Z" style="fill:#42b983;fill-rule:nonzero;"/><path d="M89.8,64.2l-52.5,0c-3.1,0 -5.7,2.6 -5.7,5.7c0,3.1 2.5,5.7 5.7,5.7l52.5,0c3.1,0 5.7,-2.6 5.7,-5.7c0,-3.2 -2.5,-5.7 -5.7,-5.7Z" style="fill:#42b983;fill-rule:nonzero;"/><path d="M10.2,16.4l8.6,0c2.2,0 3.9,-1.8 3.9,-3.9l0,-8.6c0,-2.2 -1.8,-3.9 -3.9,-3.9l-8.6,0c-2.2,0 -3.9,1.8 -3.9,3.9l0,8.6c-0.1,2.1 1.7,3.9 3.9,3.9Z" style="fill:#42b983;fill-rule:nonzero;"/><path d="M18.8,61.6l-8.6,0c-2.2,0 -3.9,1.8 -3.9,3.9l0,8.6c0,2.2 1.8,3.9 3.9,3.9l8.6,0c2.2,0 3.9,-1.8 3.9,-3.9l0,-8.6c0,-2.1 -1.7,-3.9 -3.9,-3.9Z" style="fill:#42b983;fill-rule:nonzero;"/><path d="M19.6,26l-7.6,10l-2.7,-3.5c-1.7,-2.2 -4.7,-2.6 -6.9,-0.9c-2.2,1.6 -2.6,4.7 -0.9,6.9l6.6,8.7c0.9,1.1 2.4,1.8 3.9,1.8c1.5,0 3,-0.7 3.9,-1.9l11.5,-15.1c1.7,-2.2 1.2,-5.3 -0.9,-6.9c-2.2,-1.6 -5.3,-1.2 -6.9,0.9Z" style="fill:#42b983;fill-rule:nonzero;"/></g><rect id="Artboard1" x="0" y="0" width="95.053" height="78" style="fill:none;"/></svg>