<?xml version="1.0" standalone="no"?>
<!DOCTYPE svg PUBLIC "-//W3C//DTD SVG 20010904//EN"
 "http://www.w3.org/TR/2001/REC-SVG-20010904/DTD/svg10.dtd">
<svg version="1.0" xmlns="http://www.w3.org/2000/svg"
 width="1024.000000pt" height="1024.000000pt" viewBox="0 0 1024.000000 1024.000000"
 preserveAspectRatio="xMidYMid meet">
<metadata>
Created by potrace 1.11, written by Peter Selinger 2001-2013
</metadata>
<g transform="translate(0.000000,1024.000000) scale(0.100000,-0.100000)"
fill="#000000" stroke="none">
<path d="M4800 10144 c-325 -28 -538 -59 -775 -110 -1776 -387 -3227 -1729
-3750 -3469 -144 -478 -209 -928 -209 -1445 0 -517 65 -967 209 -1445 523
-1740 1974 -3082 3750 -3469 392 -85 646 -111 1095 -111 449 0 703 26 1095
111 1469 320 2746 1309 3424 2653 292 578 457 1162 522 1846 27 277 15 753
-27 1073 -183 1412 -981 2700 -2169 3501 -706 476 -1460 752 -2315 847 -137
15 -736 28 -850 18z m943 -1908 c50 -18 76 -42 98 -91 18 -38 19 -98 19 -1284
l0 -1244 466 5 c256 3 462 3 457 -1 -25 -22 -323 -270 -952 -790 l-703 -582
-27 24 c-14 13 -348 301 -741 639 -393 339 -735 634 -760 656 l-45 41 433 1
432 0 0 1248 c0 1189 1 1249 19 1287 22 49 48 73 98 91 56 19 1150 19 1206 0z
m-2518 -3816 c43 -22 83 -40 89 -40 7 0 84 -36 171 -80 87 -44 164 -80 170
-80 6 0 83 -36 170 -80 87 -44 164 -80 169 -80 15 0 180 -83 184 -92 2 -5 12
-8 23 -8 10 0 19 -4 19 -10 0 -5 9 -10 20 -10 11 0 20 -4 20 -10 0 -5 14 -10
30 -10 17 0 30 -4 30 -10 0 -5 9 -10 20 -10 11 0 20 -4 20 -10 0 -5 9 -10 20
-10 11 0 20 -4 20 -10 0 -5 9 -10 20 -10 11 0 20 -4 20 -10 0 -5 9 -10 20 -10
11 0 20 -4 20 -10 0 -5 9 -10 20 -10 11 0 20 -4 20 -10 0 -5 9 -10 20 -10 11
0 20 -4 20 -10 0 -5 9 -10 20 -10 11 0 20 -4 20 -10 0 -5 14 -10 30 -10 17 0
30 -4 30 -10 0 -5 9 -10 20 -10 11 0 20 -4 20 -10 0 -5 9 -10 20 -10 11 0 20
-4 20 -10 0 -5 9 -10 20 -10 11 0 20 -4 20 -10 0 -5 9 -10 20 -10 11 0 20 -4
20 -10 0 -5 9 -10 20 -10 11 0 20 -4 20 -10 0 -5 9 -10 20 -10 11 0 20 -4 20
-10 0 -5 9 -10 20 -10 11 0 20 -4 20 -10 0 -5 11 -10 25 -10 13 0 40 -9 60
-20 29 -16 54 -20 130 -20 57 0 95 4 95 10 0 6 10 10 23 10 13 0 77 27 142 60
65 33 124 60 130 60 6 0 83 36 170 80 87 44 164 80 170 80 6 0 74 32 150 70
76 39 144 70 150 70 6 0 83 36 170 80 87 44 164 80 170 80 6 0 74 32 150 70
76 39 144 70 150 70 6 0 74 32 150 70 76 39 147 70 156 70 10 0 21 5 24 10 14
22 69 10 102 -22 l33 -32 0 -522 c0 -338 -4 -525 -10 -529 -5 -3 -10 -16 -10
-29 0 -13 -9 -31 -20 -41 -11 -10 -20 -23 -20 -30 0 -24 -61 -68 -166 -121
-59 -30 -113 -54 -119 -54 -6 0 -83 -36 -170 -80 -87 -44 -164 -80 -170 -80
-6 0 -74 -31 -150 -70 -76 -38 -144 -70 -150 -70 -6 0 -74 -31 -150 -70 -76
-38 -145 -70 -152 -70 -7 0 -13 -4 -13 -10 0 -5 -10 -10 -23 -10 -13 0 -86
-31 -162 -70 -76 -38 -144 -70 -150 -70 -6 0 -74 -31 -150 -70 -76 -38 -144
-70 -150 -70 -17 0 -65 -24 -65 -32 0 -5 -9 -8 -20 -8 -11 0 -20 -4 -20 -10 0
-5 -18 -10 -39 -10 -22 0 -41 -5 -44 -12 -4 -10 -7 -10 -18 0 -7 6 -29 12 -50
12 -23 0 -65 15 -114 40 -43 22 -83 40 -89 40 -7 0 -84 36 -171 80 -87 44
-164 80 -170 80 -6 0 -83 36 -170 80 -87 44 -164 80 -170 80 -6 0 -74 32 -150
70 -76 39 -144 70 -150 70 -6 0 -83 36 -170 80 -87 44 -164 80 -170 80 -6 0
-74 32 -150 70 -76 39 -149 70 -162 70 -13 0 -23 5 -23 10 0 6 -9 10 -20 10
-11 0 -20 5 -20 10 0 6 -7 10 -15 10 -20 0 -145 125 -145 145 0 8 -4 15 -10
15 -5 0 -10 18 -10 40 0 22 -4 40 -10 40 -7 0 -10 170 -10 489 0 533 0 528 57
563 44 26 84 21 168 -22z"/>
</g>
</svg>
