<?xml version="1.0" standalone="no"?>
<!DOCTYPE svg PUBLIC "-//W3C//DTD SVG 20010904//EN"
 "http://www.w3.org/TR/2001/REC-SVG-20010904/DTD/svg10.dtd">
<svg version="1.0" xmlns="http://www.w3.org/2000/svg"
 width="512.000000pt" height="512.000000pt" viewBox="0 0 512.000000 512.000000"
 preserveAspectRatio="xMidYMid meet">
<metadata>
Created by potrace 1.11, written by Peter Selinger 2001-2013
</metadata>
<g transform="translate(0.000000,512.000000) scale(0.100000,-0.100000)"
fill="#000000" stroke="none">
<path d="M2401 4646 c-30 -8 -97 -36 -150 -62 -142 -72 -232 -165 -402 -419
-149 -223 -229 -313 -301 -340 -45 -16 -51 -16 -100 -1 -29 9 -129 55 -223
101 -197 98 -224 106 -254 76 -60 -60 7 -396 118 -586 50 -86 189 -220 289
-278 98 -58 277 -127 327 -127 40 0 73 15 155 70 96 65 181 102 320 137 126
33 148 35 335 40 174 5 215 3 316 -16 182 -33 316 -84 460 -177 96 -63 122
-65 250 -20 175 62 286 132 398 252 111 118 169 241 210 441 28 138 28 236 0
264 -17 17 -29 20 -56 16 -37 -6 -42 -8 -223 -105 -139 -73 -230 -106 -274
-97 -49 11 -112 51 -149 98 -19 23 -87 121 -152 217 -216 322 -319 422 -510
493 -70 26 -96 30 -205 33 -84 2 -143 -1 -179 -10z"/>
<path d="M2335 3104 c-231 -31 -451 -136 -499 -238 -18 -39 -19 -27 11 -252 4
-35 0 -52 -31 -106 -42 -76 -43 -89 -13 -186 29 -93 64 -130 163 -170 110 -45
147 -79 179 -162 48 -126 74 -135 415 -135 273 0 316 6 367 49 18 15 36 46 46
79 25 80 48 102 164 159 132 64 157 89 183 181 12 40 23 78 25 85 6 17 -15 67
-49 116 -30 45 -32 73 -11 171 29 137 15 183 -79 253 -193 143 -527 203 -871
156z m-48 -209 c95 -28 151 -110 140 -206 -11 -87 -64 -162 -139 -193 -50 -21
-208 -22 -248 -1 -62 32 -77 127 -40 249 45 143 141 194 287 151z m768 -36
c73 -77 110 -249 69 -319 -28 -47 -62 -60 -161 -60 -114 0 -152 12 -201 61
-88 87 -97 236 -19 308 42 39 122 62 201 58 66 -3 69 -4 111 -48z m-461 -330
c27 -21 106 -165 106 -193 0 -37 -28 -46 -144 -46 -156 0 -163 10 -95 141 37
70 77 119 99 119 4 0 19 -9 34 -21z"/>
<path d="M1054 2215 c-4 -8 -4 -25 0 -38 7 -29 147 -190 217 -249 178 -151
544 -373 634 -384 45 -6 270 44 342 76 46 20 53 38 26 62 -16 14 -190 94 -453
208 -98 42 -502 231 -635 296 -96 47 -122 53 -131 29z"/>
<path d="M3879 2162 c-224 -110 -477 -229 -594 -278 -60 -25 -137 -60 -169
-76 -33 -17 -78 -37 -100 -45 -23 -7 -104 -40 -181 -73 -306 -129 -530 -202
-827 -270 -143 -33 -244 -46 -282 -36 -16 4 -33 20 -45 45 -31 61 -84 101
-132 101 -33 0 -47 -6 -75 -34 -43 -43 -45 -85 -9 -177 77 -194 113 -398 86
-494 -40 -147 -191 -235 -351 -206 -86 16 -150 53 -216 124 -54 58 -67 94 -41
114 11 9 271 85 389 114 26 6 59 23 74 38 23 23 26 32 21 72 -8 64 -31 114
-61 134 -23 16 -30 16 -98 0 -40 -9 -116 -29 -168 -45 -173 -52 -192 -54 -260
-25 -33 14 -70 25 -82 25 -54 0 -98 -60 -98 -132 0 -51 21 -97 76 -164 23 -27
60 -83 84 -124 82 -140 204 -241 333 -276 137 -36 330 -4 432 74 104 79 151
171 175 347 18 128 13 123 230 185 311 88 663 205 805 267 39 17 113 48 165
68 149 59 478 225 592 300 253 166 441 331 498 438 20 38 22 48 11 61 -8 9
-21 16 -30 15 -9 0 -77 -30 -152 -67z"/>
<path d="M3497 1509 c-15 -12 -39 -43 -52 -69 -13 -26 -31 -50 -40 -54 -9 -3
-54 -6 -99 -6 -92 0 -138 -13 -278 -78 -47 -22 -103 -45 -125 -52 -51 -17 -63
-28 -63 -57 0 -31 20 -39 268 -108 232 -65 236 -67 246 -172 30 -293 200 -453
482 -453 202 0 359 99 469 295 27 48 64 106 83 128 89 107 101 203 31 261 -38
32 -69 33 -137 1 -30 -14 -59 -25 -66 -25 -6 0 -103 25 -214 55 -111 30 -211
55 -220 55 -30 0 -70 -52 -85 -110 -15 -58 -9 -98 19 -121 9 -7 110 -38 226
-70 146 -39 217 -63 231 -78 21 -21 21 -21 2 -57 -27 -50 -109 -122 -175 -153
-112 -52 -273 -27 -360 57 -67 65 -85 128 -77 269 5 86 13 125 56 254 63 188
65 227 17 275 -41 41 -94 46 -139 13z"/>
</g>
</svg>
